<svg xmlns="http://www.w3.org/2000/svg" width="1401" height="748" viewBox="0 0 1401 748">
<g>
<path d="M 845.21 554.96 C842.74,555.64 794.22,555.98 700.50,555.95 C583.37,555.92 558.85,555.68 555.64,554.54 C550.70,552.77 546.43,548.70 543.50,542.96 C541.19,538.44 541.18,538.17 540.67,489.96 C540.39,463.31 540.41,440.26 540.70,438.75 L 541.25 436.00 L 670.00 436.00 L 670.00 449.18 C670.00,465.18 671.52,469.47 678.84,474.11 L 683.39 477.00 L 700.75 477.00 C719.79,477.00 721.09,476.69 726.69,470.84 C731.35,465.96 732.00,463.27 732.00,448.93 L 732.00 436.00 L 860.83 436.00 L 861.49 443.25 C861.86,447.24 862.01,470.08 861.83,494.00 C861.55,531.33 861.27,538.00 859.89,541.03 C857.55,546.17 849.56,553.75 845.21,554.96 ZM 670.00 415.50 L 669.50 426.50 L 541.00 427.01 L 540.77 414.26 C540.39,393.70 540.86,388.05 543.40,382.50 C546.66,375.36 550.02,371.81 557.20,367.92 L 563.50 364.50 L 616.50 363.50 L 617.06 339.50 C617.53,319.02 617.88,314.99 619.43,312.00 C622.89,305.30 626.30,301.75 631.58,299.33 C637.59,296.58 636.66,299.14 641.00,273.50 C642.22,266.35 644.01,258.65 644.99,256.39 C646.76,252.29 655.22,242.13 668.50,228.15 L 675.50 220.78 L 679.09 207.14 C682.98,192.38 684.08,190.98 688.72,194.90 L 690.94 196.77 L 687.11 210.96 C682.84,226.80 685.04,223.48 664.87,244.50 C654.53,255.28 652.87,257.81 651.14,265.50 C649.43,273.11 646.00,293.08 646.00,295.42 C646.00,297.96 648.42,300.72 657.50,308.55 C670.39,319.67 672.88,321.34 674.52,319.99 C675.32,319.32 676.46,316.99 677.05,314.82 C678.54,309.29 676.96,305.22 670.39,297.71 C667.70,294.63 666.24,293.04 665.74,291.20 C665.17,289.07 665.87,286.61 667.42,281.12 C667.50,280.84 667.58,280.55 667.66,280.25 C669.34,274.30 670.35,273.54 677.83,272.59 C688.39,271.24 693.35,268.56 701.25,259.93 C708.55,251.95 709.43,251.35 711.79,252.85 C713.78,254.11 709.92,262.10 704.54,267.85 C699.07,273.71 688.12,279.65 681.10,280.58 C678.27,280.96 675.78,281.55 675.57,281.89 C675.36,282.23 674.89,284.31 674.53,286.51 L 673.87 290.50 L 675.79 288.32 C682.13,281.11 689.78,279.26 697.62,283.06 C701.57,284.97 702.08,285.01 704.89,283.56 C710.70,280.55 718.96,281.99 723.28,286.75 C724.80,288.44 725.57,288.57 728.81,287.70 C734.24,286.26 739.07,287.51 743.89,291.63 C746.20,293.62 748.36,294.97 748.68,294.65 C749.00,294.33 749.30,286.52 749.33,277.28 C749.40,262.51 749.13,259.60 747.11,253.00 C746.97,252.52 746.83,252.06 746.69,251.61 C744.44,244.28 743.35,240.70 743.38,237.13 C743.41,233.50 744.61,229.88 746.96,222.35 C754.77,197.22 755.75,193.43 757.55,192.98 C757.87,192.90 758.22,192.93 758.63,192.96 C758.88,192.98 759.16,193.00 759.48,193.00 C761.58,193.00 763.01,193.58 763.40,194.59 C763.73,195.47 762.01,202.78 759.56,210.84 C751.65,236.87 751.63,237.01 753.90,244.78 C757.39,256.67 758.29,264.16 758.19,280.66 L 758.10 296.83 L 763.30 297.53 C772.53,298.78 779.13,303.54 782.68,311.50 C784.20,314.90 784.52,319.13 784.81,339.69 L 785.16 363.88 L 811.83 364.19 C837.23,364.49 838.72,364.61 843.12,366.78 C850.02,370.18 857.34,377.67 859.47,383.53 C861.99,390.44 863.00,423.93 860.74,425.80 C859.62,426.73 844.54,426.96 795.89,426.76 L 732.50 426.50 L 732.00 414.84 C731.52,403.70 731.37,403.02 728.47,399.45 C722.93,392.60 720.75,392.00 701.22,392.00 C687.24,392.00 683.28,392.31 680.70,393.62 C672.45,397.80 670.64,401.51 670.00,415.50 ZM 697.50 545.99 C704.10,546.35 739.13,546.72 775.35,546.82 L 781.34 546.84 C837.18,546.99 844.26,547.01 847.72,543.48 C848.34,542.85 848.85,542.10 849.50,541.22 C851.42,538.60 851.51,536.69 851.78,491.25 L 852.06 444.00 L 826.78 444.01 C802.61,444.02 772.28,445.31 765.14,446.64 C762.57,447.12 761.47,448.03 760.42,450.53 C759.67,452.33 758.45,454.41 757.71,455.15 C753.87,458.99 744.90,471.57 744.36,473.87 C743.16,478.97 739.82,483.61 734.94,486.94 C732.23,488.79 727.49,492.95 724.41,496.18 C721.32,499.42 716.03,503.92 712.65,506.19 C706.03,510.64 693.42,523.09 692.46,526.14 C692.13,527.16 691.30,528.00 690.62,528.00 C689.93,528.00 687.99,529.46 686.30,531.25 C682.91,534.83 681.75,535.81 677.72,538.45 C676.23,539.43 675.00,540.82 675.00,541.53 C675.00,543.48 683.96,545.26 697.50,545.99 ZM 549.67 416.33 C550.58,417.25 555.00,417.18 555.01,416.25 C555.20,394.19 555.43,392.27 558.50,387.93 C560.15,385.60 562.77,382.75 564.32,381.59 L 567.15 379.50 L 686.32 379.24 C802.72,378.99 811.00,379.17 811.00,381.93 C811.00,382.30 809.42,384.13 807.50,386.00 C805.58,387.87 804.00,390.15 804.00,391.09 C804.00,393.17 800.51,401.14 799.63,401.06 C799.29,401.03 799.00,401.23 799.00,401.50 C799.00,402.49 794.97,406.00 793.83,406.00 C793.19,406.00 792.92,406.26 793.24,406.57 C793.55,406.88 793.18,408.35 792.41,409.82 C791.06,412.40 791.12,412.55 794.16,413.82 C799.38,416.00 813.43,417.07 833.00,416.78 L 851.50 416.50 L 851.78 403.69 C852.04,391.67 851.90,390.52 849.40,384.97 C847.32,380.31 845.74,378.40 842.04,376.02 L 837.32 373.00 L 701.62 373.00 C568.69,373.00 565.84,373.04 562.07,374.97 C556.84,377.63 551.44,384.19 550.10,389.50 C548.91,394.23 548.57,415.24 549.67,416.33 ZM 716.40 467.61 C714.57,468.37 712.26,468.91 711.28,468.81 C710.30,468.70 703.72,468.37 696.66,468.06 C684.13,467.51 683.76,467.43 681.41,464.69 L 679.00 461.89 L 679.00 406.27 L 681.64 403.64 L 684.27 401.00 L 717.73 401.00 L 720.36 403.64 L 723.00 406.27 L 723.00 433.91 C723.00,464.58 722.94,464.87 716.40,467.61 ZM 640.00 344.09 L 640.00 364.02 L 761.50 363.50 L 761.77 343.63 C761.96,329.82 761.69,323.34 760.90,322.38 C760.27,321.62 758.24,321.00 756.38,321.00 C753.57,321.00 753.00,321.37 753.00,323.18 C753.00,327.63 748.95,333.95 744.38,336.63 C740.51,338.89 739.26,339.14 734.54,338.55 C729.46,337.91 729.02,338.03 727.41,340.49 C725.44,343.50 719.17,347.01 715.79,346.99 C714.53,346.98 711.41,346.34 708.85,345.57 C704.36,344.20 704.13,344.24 701.95,346.55 C696.93,351.89 686.19,352.38 678.94,347.58 C675.36,345.21 674.44,345.00 671.77,345.93 C663.53,348.80 654.34,345.51 650.24,338.21 C648.55,335.20 648.00,332.61 648.00,327.61 L 648.00 321.00 L 644.61 321.00 C642.44,321.00 641.00,321.57 640.61,322.58 C640.27,323.45 640.00,333.13 640.00,344.09 ZM 688.67 459.33 C689.90,460.57 712.51,460.09 713.80,458.80 C714.67,457.93 715.00,450.98 715.00,433.80 L 715.00 410.00 L 688.00 410.00 L 688.00 434.33 C688.00,447.72 688.30,458.97 688.67,459.33 ZM 685.78 341.44 C689.97,343.72 692.85,343.30 696.22,339.93 L 699.29 336.86 L 698.63 324.68 C697.10,296.76 696.80,294.16 694.82,292.03 C692.10,289.12 687.62,289.40 685.07,292.63 C682.58,295.81 682.49,298.14 684.62,304.40 C686.62,310.28 686.09,317.11 683.16,323.17 C680.86,327.91 680.33,334.88 682.03,338.05 C682.59,339.10 684.28,340.63 685.78,341.44 ZM 709.92 335.42 C714.84,340.65 723.01,337.31 722.99,330.08 C722.98,327.04 720.39,308.16 718.48,297.28 C717.73,292.98 715.55,291.00 711.55,291.00 C705.79,291.00 705.60,291.88 706.60,313.45 C707.46,331.98 707.61,332.95 709.92,335.42 ZM 550.03 527.10 C550.60,529.24 551.49,531.00 551.99,531.00 C554.39,531.00 554.99,521.67 554.99,484.18 L 555.00 444.87 L 552.25 445.18 L 549.50 445.50 L 549.24 484.35 C549.07,509.19 549.36,524.61 550.03,527.10 ZM 733.68 328.75 C736.20,330.60 739.08,330.27 741.69,327.83 C744.60,325.09 744.58,323.63 741.44,310.35 C738.19,296.57 735.83,293.88 729.83,297.09 C727.97,298.09 727.85,298.77 728.49,304.84 C729.88,317.98 731.94,327.47 733.68,328.75 ZM 659.45 336.55 C661.00,338.09 663.05,339.00 665.00,339.00 C668.01,339.00 673.00,335.32 673.00,333.10 C673.00,332.55 671.31,330.86 669.25,329.33 C667.19,327.81 664.02,325.31 662.22,323.78 C660.41,322.25 658.50,321.00 657.97,321.00 C657.43,321.00 657.00,323.95 657.00,327.55 C657.00,333.16 657.35,334.44 659.45,336.55 Z" fill="rgb(232,122,57)"/>
<path d="M 697.50 545.99 C683.96,545.26 675.00,543.48 675.00,541.53 C675.00,540.82 676.23,539.43 677.72,538.45 C681.75,535.81 682.91,534.83 686.30,531.25 C687.99,529.46 689.93,528.00 690.62,528.00 C691.30,528.00 692.13,527.16 692.46,526.14 C693.42,523.09 706.03,510.64 712.65,506.19 C716.03,503.92 721.32,499.42 724.41,496.18 C727.49,492.95 732.23,488.79 734.94,486.94 C739.82,483.61 743.16,478.97 744.36,473.87 C744.90,471.57 753.87,458.99 757.71,455.15 C758.45,454.41 759.67,452.33 760.42,450.53 C761.47,448.03 762.57,447.12 765.14,446.64 C772.28,445.31 802.61,444.02 826.78,444.01 L 852.06 444.00 L 851.87 476.22 C851.81,466.64 851.68,459.09 851.48,456.29 C850.70,445.46 850.61,445.38 840.35,447.04 C836.58,447.65 831.03,448.16 828.00,448.19 C821.87,448.24 820.00,449.22 820.00,452.40 C820.00,453.59 819.38,455.44 818.62,456.53 C817.86,457.61 817.25,459.83 817.25,461.46 C817.25,463.09 816.74,464.59 816.12,464.79 C815.51,465.00 815.00,465.80 815.00,466.58 C815.00,467.35 811.88,471.14 808.08,474.99 C801.86,481.28 800.75,482.00 797.26,482.00 C794.31,482.00 792.76,482.66 790.81,484.75 C787.46,488.34 786.00,491.28 786.00,494.43 C786.00,496.12 784.47,498.54 781.48,501.57 C778.99,504.10 776.11,507.81 775.06,509.83 C774.02,511.85 771.34,515.22 769.10,517.32 C766.86,519.42 764.31,522.36 763.43,523.86 C762.54,525.35 759.27,528.44 756.16,530.72 C753.05,533.01 749.64,536.48 748.59,538.44 C746.76,541.86 746.75,542.07 748.48,543.98 C750.13,545.80 751.81,545.98 769.39,546.25 C792.11,546.60 808.00,546.85 819.23,546.85 C810.08,546.92 797.84,546.88 781.34,546.84 L 775.35 546.82 C739.13,546.72 704.10,546.35 697.50,545.99 ZM 610.12 379.41 C627.07,379.31 650.58,379.23 683.32,379.12 C747.22,378.92 802.01,378.54 805.07,378.29 C808.13,378.04 817.80,378.30 826.56,378.88 C835.32,379.45 842.85,379.55 843.30,379.10 C843.75,378.65 842.71,377.09 840.98,375.64 L 839.52 374.41 L 842.04 376.02 C845.74,378.40 847.32,380.31 849.40,384.97 C851.90,390.52 852.04,391.67 851.78,403.69 L 851.50 416.50 L 833.00 416.78 C813.43,417.07 799.38,416.00 794.16,413.82 C791.12,412.55 791.06,412.40 792.41,409.82 C793.18,408.35 793.55,406.88 793.24,406.57 C792.92,406.26 793.19,406.00 793.83,406.00 C794.97,406.00 799.00,402.49 799.00,401.50 C799.00,401.23 799.29,401.03 799.63,401.06 C800.51,401.14 804.00,393.17 804.00,391.09 C804.00,390.15 805.58,387.87 807.50,386.00 C809.42,384.13 811.00,382.30 811.00,381.93 C811.00,379.17 802.72,378.99 686.32,379.24 ZM 550.03 527.10 C549.36,524.61 549.07,509.19 549.24,484.35 L 549.50 445.50 L 552.25 445.18 L 555.00 444.87 L 555.00 444.87 L 549.50 445.50 L 549.63 461.22 C549.70,469.87 550.06,477.71 550.42,478.65 C551.03,480.24 551.18,480.25 552.75,478.68 C554.14,477.29 554.49,474.26 554.83,460.92 L 555.00 454.44 L 554.99 484.18 C554.99,521.67 554.39,531.00 551.99,531.00 C551.49,531.00 550.60,529.24 550.03,527.10 ZM 703.37 269.03 C700.95,271.57 698.44,273.78 696.25,275.14 C694.46,276.25 693.00,277.80 693.00,278.57 C693.00,279.34 694.87,281.16 697.16,282.60 C697.80,283.01 698.36,283.35 698.84,283.64 C698.47,283.47 698.07,283.27 697.62,283.06 C689.78,279.26 682.13,281.11 675.79,288.32 L 673.87 290.50 L 674.53 286.51 C674.89,284.31 675.36,282.23 675.57,281.89 C675.78,281.55 678.27,280.96 681.10,280.58 C687.65,279.71 697.62,274.48 703.37,269.03 ZM 702.13 258.97 C703.54,257.14 704.81,255.15 705.94,253.00 C707.23,250.52 708.58,248.17 708.93,247.76 C710.07,246.46 714.00,250.03 714.00,252.36 C714.00,254.79 711.24,259.53 707.58,264.17 C711.24,259.15 713.38,253.86 711.79,252.85 C709.53,251.42 708.62,251.90 702.13,258.97 ZM 686.28 193.23 L 686.84 193.19 C690.22,192.94 691.00,193.21 691.00,194.60 C691.00,194.85 690.88,195.53 690.67,196.55 L 688.72 194.90 C687.78,194.10 686.98,193.52 686.28,193.23 ZM 684.26 193.38 C682.65,194.54 681.34,198.61 679.09,207.14 L 682.68 193.50 ZM 695.51 265.56 C690.38,269.87 685.64,271.59 677.83,272.59 C684.57,271.73 690.53,269.34 695.51,265.56 ZM 688.16 207.09 C687.88,208.17 687.59,209.28 687.30,210.41 C686.14,214.81 685.42,217.81 684.55,220.31 C685.31,218.00 685.98,215.15 687.11,210.96 ZM 842.28 545.82 C845.21,545.26 846.67,544.45 847.80,543.32 C848.40,542.71 848.91,542.02 849.50,541.22 C848.85,542.10 848.34,542.85 847.72,543.48 C846.67,544.56 845.28,545.31 842.28,545.82 ZM 675.23 233.71 C672.55,236.58 669.05,240.18 664.41,245.00 C662.64,246.85 661.12,248.45 659.83,249.87 C661.23,248.32 662.89,246.56 664.87,244.50 C669.30,239.88 672.65,236.44 675.23,233.71 ZM 713.95 282.13 C717.55,282.57 720.93,284.16 723.27,286.75 C720.97,284.20 717.54,282.61 713.95,282.13 ZM 702.52 284.52 C703.11,284.35 703.78,284.04 704.69,283.61 C705.04,283.44 705.40,283.29 705.76,283.15 C705.47,283.27 705.17,283.41 704.89,283.56 C703.89,284.07 703.19,284.40 702.52,284.52 Z" fill="rgb(243,149,92)"/>
<path d="M 842.28 545.82 C838.34,546.49 831.62,546.76 819.23,546.85 C808.00,546.85 792.11,546.60 769.39,546.25 C751.81,545.98 750.13,545.80 748.48,543.98 C746.75,542.07 746.76,541.86 748.59,538.44 C749.64,536.48 753.05,533.01 756.16,530.72 C759.27,528.44 762.54,525.35 763.43,523.86 C764.31,522.36 766.86,519.42 769.10,517.32 C771.34,515.22 774.02,511.85 775.06,509.83 C776.11,507.81 778.99,504.10 781.48,501.57 C784.47,498.54 786.00,496.12 786.00,494.43 C786.00,491.28 787.46,488.34 790.81,484.75 C792.76,482.66 794.31,482.00 797.26,482.00 C800.75,482.00 801.86,481.28 808.08,474.99 C811.88,471.14 815.00,467.35 815.00,466.58 C815.00,465.80 815.51,465.00 816.12,464.79 C816.74,464.59 817.25,463.09 817.25,461.46 C817.25,459.83 817.86,457.61 818.62,456.53 C819.38,455.44 820.00,453.59 820.00,452.40 C820.00,449.22 821.87,448.24 828.00,448.19 C831.03,448.16 836.58,447.65 840.35,447.04 C850.61,445.38 850.70,445.46 851.48,456.29 C851.68,459.09 851.81,466.64 851.87,476.22 L 851.78 491.25 C851.51,536.69 851.42,538.60 849.50,541.22 L 849.50 541.22 L 849.47 541.25 C848.90,542.04 848.39,542.72 847.80,543.32 C846.67,544.45 845.21,545.26 842.28,545.82 ZM 549.67 416.33 C548.57,415.24 548.91,394.23 550.10,389.50 C551.44,384.19 556.84,377.63 562.07,374.97 C565.84,373.04 568.69,373.00 701.62,373.00 L 837.32 373.00 L 839.52 374.41 L 840.98 375.64 C842.71,377.09 843.75,378.65 843.30,379.10 C842.85,379.55 835.32,379.45 826.56,378.88 C817.80,378.30 808.13,378.04 805.07,378.29 C802.01,378.54 747.22,378.92 683.32,379.12 C650.58,379.23 627.07,379.31 610.12,379.41 L 567.15 379.50 L 564.32 381.59 C562.77,382.75 560.15,385.60 558.50,387.93 C555.43,392.27 555.20,394.19 555.01,416.25 C555.00,417.18 550.58,417.25 549.67,416.33 ZM 703.37 269.03 C703.78,268.64 704.18,268.24 704.54,267.85 C705.63,266.69 706.65,265.44 707.58,264.17 C711.24,259.53 714.00,254.79 714.00,252.36 C714.00,250.03 710.07,246.46 708.93,247.76 C708.58,248.17 707.23,250.52 705.94,253.00 C704.81,255.15 703.54,257.14 702.13,258.97 C701.85,259.28 701.55,259.60 701.25,259.93 C700.31,260.96 699.41,261.90 698.54,262.76 C703.83,257.20 706.31,253.27 707.38,248.75 C707.83,246.86 708.68,246.00 710.08,246.00 C713.03,246.00 716.00,247.82 716.00,249.61 C716.00,251.93 723.44,258.84 726.67,259.52 C728.23,259.85 731.30,260.51 733.50,261.00 C742.41,262.97 743.72,262.97 745.49,261.02 C746.91,259.45 747.01,258.56 746.11,255.81 C745.51,253.99 745.05,251.15 745.08,249.50 C745.11,248.35 744.85,246.21 744.46,244.07 C745.00,246.10 745.74,248.53 746.69,251.61 C746.83,252.06 746.97,252.52 747.11,253.00 C749.13,259.60 749.40,262.51 749.33,277.28 C749.30,286.52 749.00,294.33 748.68,294.65 C748.36,294.97 746.20,293.62 743.89,291.63 C739.07,287.51 734.24,286.26 728.81,287.70 C725.57,288.57 724.80,288.44 723.28,286.75 L 723.27 286.75 C720.93,284.16 717.55,282.57 713.95,282.13 C711.16,281.76 708.28,282.08 705.76,283.15 C705.40,283.29 705.04,283.44 704.69,283.61 C703.78,284.04 703.11,284.35 702.52,284.52 C701.51,284.71 700.57,284.43 698.84,283.64 C698.36,283.35 697.80,283.01 697.16,282.60 C694.87,281.16 693.00,279.34 693.00,278.57 C693.00,277.80 694.46,276.25 696.25,275.14 C698.44,273.78 700.95,271.57 703.37,269.03 ZM 555.00 444.87 L 555.00 454.44 L 554.83 460.92 C554.49,474.26 554.14,477.29 552.75,478.68 C551.18,480.25 551.03,480.24 550.42,478.65 C550.06,477.71 549.70,469.87 549.63,461.22 L 549.50 445.50 L 552.37 445.17 ZM 743.60 240.08 C742.99,237.25 743.05,235.57 744.53,230.33 C743.78,233.05 743.40,235.09 743.38,237.13 C743.37,238.09 743.44,239.04 743.60,240.08 Z" fill="rgb(237,178,138)"/>
<path d="M 0.00 374.00 L 0.00 0.00 L 700.50 0.00 L 1401.00 0.00 L 1401.00 374.00 L 1401.00 748.00 L 700.50 748.00 L 0.00 748.00 L 0.00 374.00 ZM 845.21 554.96 C849.56,553.75 857.55,546.17 859.89,541.03 C861.27,538.00 861.55,531.33 861.83,494.00 C862.01,470.08 861.86,447.24 861.49,443.25 L 860.83 436.00 L 796.41 436.00 L 732.00 436.00 L 732.00 448.93 C732.00,463.27 731.35,465.96 726.69,470.84 C721.09,476.69 719.79,477.00 700.75,477.00 L 683.39 477.00 L 678.84 474.11 C671.52,469.47 670.00,465.18 670.00,449.18 L 670.00 436.00 L 605.62 436.00 L 541.25 436.00 L 540.70 438.75 C540.41,440.26 540.39,463.31 540.67,489.96 C541.18,538.17 541.19,538.44 543.50,542.96 C546.43,548.70 550.70,552.77 555.64,554.54 C558.85,555.68 583.37,555.92 700.50,555.95 C794.22,555.98 842.74,555.64 845.21,554.96 ZM 716.40 467.61 C722.94,464.87 723.00,464.58 723.00,433.91 L 723.00 406.27 L 720.36 403.64 L 717.73 401.00 L 701.00 401.00 L 684.27 401.00 L 681.64 403.64 L 679.00 406.27 L 679.00 434.08 L 679.00 461.89 L 681.41 464.69 C683.76,467.43 684.13,467.51 696.66,468.06 C703.72,468.37 710.30,468.70 711.28,468.81 C712.26,468.91 714.57,468.37 716.40,467.61 ZM 670.00 415.50 C670.64,401.51 672.45,397.80 680.70,393.62 C683.28,392.31 687.24,392.00 701.22,392.00 C720.75,392.00 722.93,392.60 728.47,399.45 C731.37,403.02 731.52,403.70 732.00,414.84 L 732.50 426.50 L 795.89 426.76 C844.54,426.96 859.62,426.73 860.74,425.80 C863.00,423.93 861.99,390.44 859.47,383.53 C857.34,377.67 850.02,370.18 843.12,366.78 C838.72,364.61 837.23,364.49 811.83,364.19 L 785.16 363.88 L 784.81 339.69 C784.52,319.13 784.20,314.90 782.68,311.50 C779.13,303.54 772.53,298.78 763.30,297.53 L 758.10 296.83 L 758.19 280.66 C758.29,264.16 757.39,256.67 753.90,244.78 C751.63,237.01 751.65,236.87 759.56,210.84 C762.01,202.78 763.73,195.47 763.40,194.59 C763.01,193.58 761.58,193.00 759.48,193.00 C755.75,193.00 757.01,190.05 746.96,222.35 C742.81,235.65 742.69,236.40 743.89,241.35 C744.58,244.18 745.11,247.85 745.08,249.50 C745.05,251.15 745.51,253.99 746.11,255.81 C747.01,258.56 746.91,259.45 745.49,261.02 C743.72,262.97 742.41,262.97 733.50,261.00 C731.30,260.51 728.23,259.85 726.67,259.52 C723.44,258.84 716.00,251.93 716.00,249.61 C716.00,247.82 713.03,246.00 710.08,246.00 C708.68,246.00 707.83,246.86 707.38,248.75 C706.31,253.27 703.83,257.20 698.54,262.76 C693.06,268.53 686.96,271.43 677.83,272.59 C670.35,273.54 669.34,274.30 667.66,280.25 C664.52,291.39 664.44,290.90 670.39,297.71 C676.96,305.22 678.54,309.29 677.05,314.82 C676.46,316.99 675.32,319.32 674.52,319.99 C672.88,321.34 670.39,319.67 657.50,308.55 C648.42,300.72 646.00,297.96 646.00,295.42 C646.00,293.08 649.43,273.11 651.14,265.50 C652.87,257.85 654.53,255.27 664.41,245.00 C684.60,224.02 683.15,226.22 687.30,210.41 C689.33,202.66 691.00,195.54 691.00,194.60 C691.00,193.21 690.22,192.94 686.84,193.19 L 682.68 193.50 L 679.09 207.14 L 675.50 220.78 L 668.50 228.15 C655.22,242.13 646.76,252.29 644.99,256.39 C644.01,258.65 642.22,266.35 641.00,273.50 C636.66,299.14 637.59,296.58 631.58,299.33 C626.30,301.75 622.89,305.30 619.43,312.00 C617.88,314.99 617.53,319.02 617.06,339.50 L 616.50 363.50 L 590.00 364.00 L 563.50 364.50 L 557.20 367.92 C550.02,371.81 546.66,375.36 543.40,382.50 C540.86,388.05 540.39,393.70 540.77,414.26 L 541.00 427.01 L 605.25 426.76 L 669.50 426.50 L 670.00 415.50 ZM 688.67 459.33 C688.30,458.97 688.00,447.72 688.00,434.33 L 688.00 410.00 L 701.50 410.00 L 715.00 410.00 L 715.00 433.80 C715.00,450.98 714.67,457.93 713.80,458.80 C712.51,460.09 689.90,460.57 688.67,459.33 ZM 640.00 344.09 C640.00,333.13 640.27,323.45 640.61,322.58 C641.00,321.57 642.44,321.00 644.61,321.00 L 648.00 321.00 L 648.00 327.61 C648.00,332.61 648.55,335.20 650.24,338.21 C654.34,345.51 663.53,348.80 671.77,345.93 C674.44,345.00 675.36,345.21 678.94,347.58 C686.19,352.38 696.93,351.89 701.95,346.55 C704.13,344.24 704.36,344.20 708.85,345.57 C711.41,346.34 714.53,346.98 715.79,346.99 C719.17,347.01 725.44,343.50 727.41,340.49 C729.02,338.03 729.46,337.91 734.54,338.55 C739.26,339.14 740.51,338.89 744.38,336.63 C748.95,333.95 753.00,327.63 753.00,323.18 C753.00,321.37 753.57,321.00 756.38,321.00 C758.24,321.00 760.27,321.62 760.90,322.38 C761.69,323.34 761.96,329.82 761.77,343.63 L 761.50 363.50 L 700.75 363.76 L 640.00 364.02 L 640.00 344.09 ZM 685.78 341.44 C684.28,340.63 682.59,339.10 682.03,338.05 C680.33,334.88 680.86,327.91 683.16,323.17 C686.09,317.11 686.62,310.28 684.62,304.40 C682.49,298.14 682.58,295.81 685.07,292.63 C687.62,289.40 692.10,289.12 694.82,292.03 C696.80,294.16 697.10,296.76 698.63,324.68 L 699.29 336.86 L 696.22 339.93 C692.85,343.30 689.97,343.72 685.78,341.44 ZM 659.45 336.55 C657.35,334.44 657.00,333.16 657.00,327.55 C657.00,323.95 657.43,321.00 657.97,321.00 C658.50,321.00 660.41,322.25 662.22,323.78 C664.02,325.31 667.19,327.81 669.25,329.33 C671.31,330.86 673.00,332.55 673.00,333.10 C673.00,335.32 668.01,339.00 665.00,339.00 C663.05,339.00 661.00,338.09 659.45,336.55 ZM 709.92 335.42 C707.61,332.95 707.46,331.98 706.60,313.45 C705.60,291.88 705.79,291.00 711.55,291.00 C715.55,291.00 717.73,292.98 718.48,297.28 C720.39,308.16 722.98,327.04 722.99,330.08 C723.01,337.31 714.84,340.65 709.92,335.42 ZM 733.68 328.75 C731.94,327.47 729.88,317.98 728.49,304.84 C727.85,298.77 727.97,298.09 729.83,297.09 C735.83,293.88 738.19,296.57 741.44,310.35 C744.58,323.63 744.60,325.09 741.69,327.83 C739.08,330.27 736.20,330.60 733.68,328.75 Z" fill="rgb(254,254,254)"/>
</g>
</svg>